<?xml version="1.0" standalone="no"?>
<!DOCTYPE svg PUBLIC "-//W3C//DTD SVG 20010904//EN"
 "http://www.w3.org/TR/2001/REC-SVG-20010904/DTD/svg10.dtd">
<svg version="1.0" xmlns="http://www.w3.org/2000/svg"
 width="165.000000pt" height="168.000000pt" viewBox="0 0 165.000000 168.000000"
 preserveAspectRatio="xMidYMid meet">

<g transform="translate(0.000000,168.000000) scale(0.100000,-0.100000)"
fill="#E30613" stroke="none">
<path d="M434 1439 c-203 -116 -379 -221 -392 -232 -22 -20 -22 -21 -22 -363
0 -342 0 -343 23 -367 12 -13 180 -114 372 -224 413 -237 388 -223 416 -223
27 0 766 422 792 452 15 18 17 51 17 358 0 307 -2 340 -17 358 -28 33 -764
452 -794 452 -15 0 -175 -85 -395 -211z m676 -122 c155 -89 283 -167 283 -172
0 -6 -127 -83 -282 -173 l-282 -163 -290 167 c-159 91 -288 168 -286 170 2 2
132 78 288 168 156 91 284 165 285 165 0 1 128 -72 284 -162z m-794 -399 c68
-40 124 -75 124 -78 0 -5 -225 -138 -252 -148 -4 -2 -8 64 -8 147 0 83 3 151
6 151 3 0 61 -33 130 -72z m1164 -78 c0 -82 -2 -150 -5 -150 -12 0 -255 143
-255 150 0 8 238 149 253 150 4 0 7 -67 7 -150z m-652 -200 c22 0 62 17 118
50 47 28 89 51 93 53 11 3 360 -196 361 -205 0 -6 -86 -57 -424 -251 l-148
-85 -289 166 c-159 92 -285 169 -281 173 4 4 85 52 181 107 l173 100 92 -54
c60 -36 102 -54 124 -54z"/>
</g>
</svg>
